{"title":"James Cameron's AVATAR + screen","uid":5437604,"size":2369264069,"categoryP":"video","categoryS":"movies","magnet":"?xt=urn:btih:436b510d043a2d9afd76f50d1209a09249648afe&amp;dn=James+Cameron%5C%27s+AVATAR+%2B+screen&amp;tr=udp%3A%2F%2Ftracker.openbittorrent.com%3A80&amp;tr=udp%3A%2F%2Fopen.demonii.com%3A1337&amp;tr=udp%3A%2F%2Ftracker.coppersurfer.tk%3A6969&amp;tr=udp%3A%2F%2Fexodus.desync.com%3A6969","seeders":0,"leechers":0,"uploader":"karnage971","files":3,"time":1268785333,"description":"This is the best quality for James Cameron's AVATAR ever!\n\n\nFormat                           : AVI\nFormat/Info                      : Audio Video Interleave\nFormat profile                   : OpenDML\nFile size                        : 2.19 GiB\nDuration                         : 2h 36mn\nOverall bit rate                 : 1 993 Kbps\nWriting application              : VirtualDubMod 1.5.10.2 (build 2542/release)\nWriting library                  : VirtualDubMod build 2542/release\n\nVideo\nID                               : 0\nFormat                           : MPEG-4 Visual\nFormat profile                   : AdvancedSimple@L5\nFormat settings, BVOP            : Yes\nFormat settings, QPel            : No\nFormat settings, GMC             : No warppoints\nFormat settings, Matrix          : Default (H.263)\nMuxing mode                      : Packed bitstream\nCodec ID                         : XVID\nCodec ID/Hint                    : XviD\nDuration                         : 2h 36mn\nBit rate                         : 1 789 Kbps\nWidth                            : 720 pixels\nHeight                           : 400 pixels\nDisplay aspect ratio             : 16:9\nFrame rate                       : 23.976 fps\nResolution                       : 24 bits\nColorimetry                      : 4:2:0\nScan type                        : Progressive\nBits/(Pixel*Frame)               : 0.259\nStream size                      : 1.96 GiB (90%)\nWriting library                  : XviD 1.2.1 (UTC 2008-12-04)\n\nAudio\nID                               : 1\nFormat                           : AC-3\nFormat/Info                      : Audio Coding 3\nCodec ID                         : 2000\nDuration                         : 2h 36mn\nBit rate mode                    : Constant\nBit rate                         : 192 Kbps\nChannel(s)                       : 2 channels\nChannel positions                : L R\nSampling rate                    : 48.0 KHz\nStream size                      : 216 MiB (10%)\nAlignment                        : Split accross interleaves\nInterleave, duration             : 42 ms (1.00 video frame)\nInterleave, preload duration     : 500 ms\n\n\nI don't know how to modify an online Torrent, so I just added the same but this time with a screen.\n\nSo guys check it and let me know!!!","torrent":{"xt":"urn:btih:436b510d043a2d9afd76f50d1209a09249648afe","amp;dn":"James+Cameron%5C%27s+AVATAR+%2B+screen","amp;tr":["udp%3A%2F%2Ftracker.openbittorrent.com%3A80","udp%3A%2F%2Fopen.demonii.com%3A1337","udp%3A%2F%2Ftracker.coppersurfer.tk%3A6969","udp%3A%2F%2Fexodus.desync.com%3A6969"],"infoHash":"436b510d043a2d9afd76f50d1209a09249648afe","infoHashBuffer":{"type":"Buffer","data":[67,107,81,13,4,58,45,154,253,118,245,13,18,9,160,146,73,100,138,254]},"announce":[],"urlList":[]}}